Coordinates
version=1
nRows=11
nColumns=63
inDegrees=yes

Units are S.I. units (second, meters, Newtons, ...)
If the header above contains a line with 'inDegrees', this indicates whether rotational values are in degrees (yes) or radians (no).

endheader
time	pelvis_tilt	pelvis_list	pelvis_rotation	pelvis_tx	pelvis_ty	pelvis_tz	hip_flexion_r	hip_adduction_r	hip_rotation_r	knee_angle_r	knee_angle_r_beta	ankle_angle_r	subtalar_angle_r	mtp_angle_r	hip_flexion_l	hip_adduction_l	hip_rotation_l	knee_angle_l	knee_angle_l_beta	ankle_angle_l	subtalar_angle_l	mtp_angle_l	L5_S1_Flex_Ext	L5_S1_Lat_Bending	L5_S1_axial_rotation	L4_L5_Flex_Ext	L4_L5_Lat_Bending	L4_L5_axial_rotation	L3_L4_Flex_Ext	L3_L4_Lat_Bending	L3_L4_axial_rotation	L2_L3_Flex_Ext	L2_L3_Lat_Bending	L2_L3_axial_rotation	L1_L2_Flex_Ext	L1_L2_Lat_Bending	L1_L2_axial_rotation	L1_T12_Flex_Ext	L1_T12_Lat_Bending	L1_T12_axial_rotation	Abs_r3	Abs_r2	Abs_r1	Abs_t1	Abs_t2	neck_flexion	neck_bending	neck_rotation	arm_flex_r	arm_add_r	arm_rot_r	elbow_flex_r	pro_sup_r	wrist_flex_r	wrist_dev_r	arm_flex_l	arm_add_l	arm_rot_l	elbow_flex_l	pro_sup_l	wrist_flex_l	wrist_dev_l
      1.31034483	     -6.22601943	     -2.97154837	     92.69333089	      0.20990692	      0.79960150	      0.62001925	     -4.83468235	     -6.33390042	    -14.85458821	      4.24860704	      0.07415218	     19.58002358	     14.33438611	      0.00000000	     -1.56899082	      4.71857543	     16.29040266	      3.81536618	      0.06659070	     12.20781365	    -13.67354834	      0.00000000	     -0.38204977	     -0.77084387	     -0.78100993	     -0.70950462	     -1.02522235	     -0.82982305	     -0.62766956	     -1.87422979	     -0.82982305	     -0.43664468	     -1.87422979	     -0.68338369	     -0.35477141	     -1.57190482	     -0.63457057	     -0.21830324	     -1.19403716	     -0.58575745	     -2.72894329	     -8.71994004	     -4.34374294	      0.00000000	      0.00000000	     27.07324258	      6.68271092	      8.08801164	      6.31806608	     -4.08292417	     45.73294503	     23.45434074	     63.36424773	    -12.54480093	      0.60708176	      6.23409596	    -12.42283879	     38.82024049	     25.82001987	     69.75889242	     -7.14157780	     -3.49916322
      1.32758621	     -6.17366062	     -3.11279397	     92.86672938	      0.20980961	      0.79951082	      0.61977629	     -4.68381238	     -6.27684927	    -14.99068517	      4.35032699	      0.07592753	     19.60399218	     14.25964278	      0.00000000	     -1.38891380	      4.66071520	     16.28673616	      3.91120962	      0.06826349	     12.51463103	    -13.43396179	      0.00000000	     -0.36984063	     -0.76877061	     -0.74751253	     -0.68683103	     -1.02246491	     -0.79423206	     -0.60761117	     -1.86918885	     -0.79423206	     -0.42269085	     -1.86918885	     -0.65407346	     -0.34343401	     -1.56767702	     -0.60735393	     -0.21132693	     -1.19082567	     -0.56063440	     -2.64173462	     -8.69648686	     -4.15744043	      0.00000000	      0.00000000	     27.15599629	      6.89630714	      8.17757475	      5.54109066	     -3.78080546	     41.21931150	     24.22852173	     67.54006950	    -12.38513776	      1.42301271	      6.84189894	    -12.39071166	     41.53054629	     25.08222286	     67.41528572	     -7.40964569	     -3.99493515
      1.34482759	     -6.15169656	     -3.25712611	     92.98968444	      0.20975216	      0.79955554	      0.61975816	     -4.46214178	     -6.29726312	    -15.63879872	      4.55016655	      0.07941539	     19.63143485	     14.87570173	      0.00000000	     -1.17754723	      4.63890708	     16.18365863	      4.01432015	      0.07006310	     12.68934459	    -13.10871547	      0.00000000	     -0.35897092	     -0.76975238	     -0.73511890	     -0.66664489	     -1.02377066	     -0.78106383	     -0.58975332	     -1.87157593	     -0.78106383	     -0.41026786	     -1.87157593	     -0.64322904	     -0.33334039	     -1.56967905	     -0.59728411	     -0.20511598	     -1.19234643	     -0.55133917	     -2.56409337	     -8.70759285	     -4.08851078	      0.00000000	      0.00000000	     27.21033623	      7.16282012	      8.43270799	      5.53580588	     -3.71590601	     41.23402341	     24.25660720	     67.01073127	    -12.49497616	      1.25377023	      7.32027903	    -12.33167005	     43.46157421	     24.43711403	     65.70722495	     -7.47475131	     -4.34413162
      1.36206897	     -6.12380348	     -3.41013738	     93.07706574	      0.20966809	      0.79961710	      0.61980620	     -4.19915786	     -6.31165588	    -15.94576781	      4.78053506	      0.08343608	     19.58164591	     15.03271430	      0.00000000	     -0.94428412	      4.61642110	     16.03042479	      4.11831889	      0.07187822	     12.77519174	    -12.74538890	      0.00000000	     -0.34828781	     -0.76770930	     -0.72944512	     -0.64680529	     -1.02105336	     -0.77503544	     -0.57220204	     -1.86660838	     -0.77503544	     -0.39805813	     -1.86660838	     -0.63826448	     -0.32342006	     -1.56551280	     -0.59267416	     -0.19901165	     -1.18918170	     -0.54708384	     -2.48778497	     -8.68448110	     -4.05695491	      0.00000000	      0.00000000	     27.25685300	      7.33907647	      8.68999607	      5.63284155	     -3.66908826	     41.46205371	     24.06127847	     66.65608489	    -12.45471093	      1.17736257	      7.68080026	    -12.24972137	     44.68895132	     23.93100973	     64.83413949	     -7.41876453	     -4.56062455
      1.37931034	     -6.07498107	     -3.51727060	     93.21551233	      0.20943479	      0.79983055	      0.62020701	     -3.90847284	     -6.35665437	    -16.88055941	      5.16312678	      0.09011356	     19.55416693	     15.87995655	      0.00000000	     -0.62640574	      4.57370854	     15.32482938	      4.43649496	      0.07743144	     13.09906051	    -11.47806990	      0.00000000	     -0.34901195	     -0.76124958	     -0.74188543	     -0.64815009	     -1.01246194	     -0.78825327	     -0.57339173	     -1.85090223	     -0.78825327	     -0.39888576	     -1.85090223	     -0.64914975	     -0.32409250	     -1.55234015	     -0.60278192	     -0.19942543	     -1.17917560	     -0.55641408	     -2.49295746	     -8.61140752	     -4.12614422	      0.00000000	      0.00000000	     27.32685660	      7.32321858	      8.73384575	      6.10533367	     -3.73908669	     43.58762891	     23.46233786	     64.38482003	    -12.52326449	      0.70348165	      8.22130435	    -12.21414426	     47.01924359	     23.31704060	     62.64268766	     -7.45523342	     -5.10741325
      1.39655172	     -6.06210302	     -3.57501717	     93.06814321	      0.20957207	      0.80001367	      0.62040907	     -3.60317392	     -6.43034451	    -16.83797776	      5.58833820	      0.09753490	     19.45068132	     15.70893657	      0.00000000	     -0.52502902	      4.54166978	     14.89952920	      4.45863524	      0.07781787	     12.99562150	    -10.88039260	      0.00000000	     -0.34882741	     -0.76122618	     -0.69907986	     -0.64780739	     -1.01243082	     -0.74277235	     -0.57308856	     -1.85084534	     -0.74277235	     -0.39867485	     -1.85084534	     -0.61169488	     -0.32392114	     -1.55229243	     -0.56800239	     -0.19931998	     -1.17913936	     -0.52430990	     -2.49163934	     -8.61114283	     -3.88807247	      0.00000000	      0.00000000	     27.36225888	      7.07817766	      8.28819976	      6.46095125	     -3.71971774	     44.67873620	     22.87800477	     63.89379555	    -12.26163801	      0.77718910	      8.46126334	    -12.14909734	     47.61878693	     23.04404237	     62.40038891	     -7.32991674	     -5.09779241
      1.41379310	     -5.96279877	     -3.57474564	     93.12503225	      0.20932918	      0.80014246	      0.62053861	     -3.45157020	     -6.40516257	    -17.35459342	      5.93453225	      0.10357713	     19.38496242	     16.03423770	      0.00000000	     -0.46564855	      4.42860248	     14.86026495	      4.53108395	      0.07908233	     12.87399808	    -10.46706373	      0.00000000	     -0.35667436	     -0.74923005	     -0.69492553	     -0.66237996	     -0.99647597	     -0.73835838	     -0.58598031	     -1.82167794	     -0.73835838	     -0.40764313	     -1.82167794	     -0.60805984	     -0.33120781	     -1.52782992	     -0.56462699	     -0.20380373	     -1.16055735	     -0.52119415	     -2.54768930	     -8.47544017	     -3.86496732	      0.00000000	      0.00000000	     27.36526251	      6.83249122	      7.79068199	      6.72674298	     -3.74052844	     45.38370868	     22.41554459	     63.59230851	    -12.06122724	      0.69131598	      8.58353560	    -12.03147862	     47.77066833	     22.85407386	     62.61666530	     -7.28139019	     -5.14312793
      1.43103448	     -5.96951075	     -3.47294687	     93.04120481	      0.20971731	      0.80069810	      0.62099133	     -3.29025981	     -6.50142235	    -17.97556663	      6.45083488	      0.11258831	     19.28554212	     16.53652029	      0.00000000	     -0.59631923	      4.42325652	     16.01637713	      4.42981804	      0.07731491	     11.80185990	    -12.03534139	      0.00000000	     -0.37525465	     -0.76001937	     -0.69369747	     -0.69688542	     -1.01082577	     -0.73705357	     -0.61650587	     -1.84791110	     -0.73705357	     -0.42887854	     -1.84791110	     -0.60698529	     -0.34846147	     -1.54983151	     -0.56362920	     -0.21442051	     -1.17727001	     -0.52027311	     -2.68040646	     -8.59749115	     -3.85813724	      0.00000000	      0.00000000	     27.28632046	      6.75913738	      7.05441963	      9.70773828	     -3.95826008	     65.16192585	     19.42888971	     42.62767729	    -12.27219392	     -3.80280687	      9.11480369	    -12.21776493	     50.97885575	     22.40432455	     59.03194774	     -7.60182977	     -5.78494215
      1.44827586	     -5.86785211	     -3.48630388	     93.09985594	      0.20958558	      0.80068424	      0.62109756	     -3.13076862	     -6.46883257	    -18.58009087	      6.79400862	      0.11857782	     19.23082811	     16.90086612	      0.00000000	     -0.52267582	      4.31479216	     16.43395600	      4.54050177	      0.07924671	     11.25611091	    -12.32786716	      0.00000000	     -0.37806116	     -0.75109447	     -0.67034581	     -0.70209738	     -0.99895564	     -0.71224242	     -0.62111668	     -1.82621108	     -0.71224242	     -0.43208610	     -1.82621108	     -0.58655258	     -0.35106759	     -1.53163183	     -0.54465597	     -0.21602415	     -1.16344533	     -0.50275936	     -2.70045305	     -8.49653081	     -3.72826229	      0.00000000	      0.00000000	     27.27675023	      6.56779437	      6.41600138	      9.94096858	     -4.00052144	     66.23137688	     19.05179391	     42.09666632	    -11.96757403	     -3.76973419	      9.24524331	    -12.11756423	     51.21535213	     22.25342715	     59.14322502	     -7.53655178	     -5.70733600
      1.46551724	     -6.20693737	     -3.46174659	     92.97820356	      0.21102723	      0.80117941	      0.62108528	     -3.01673303	     -6.79731274	    -18.71108264	      7.10065333	      0.12392978	     19.22979213	     16.86142032	      0.00000000	     -0.65433635	      4.53988281	     16.83168140	      4.36269370	      0.07614337	     10.31923878	    -12.63584388	      0.00000000	     -0.37986885	     -0.80988676	     -0.64539112	     -0.70545445	     -1.07714940	     -0.68572806	     -0.62408654	     -1.96915868	     -0.68572806	     -0.43415211	     -1.96915868	     -0.56471723	     -0.35274622	     -1.65152109	     -0.52438028	     -0.21705706	     -1.25451460	     -0.48404334	     -2.71336524	     -9.16160105	     -3.58947178	      0.00000000	      0.00000000	     27.17835806	      6.72323658	      5.94471291	     13.69247078	      0.38392827	    121.96810968	      6.79056604	      1.81897916	     -5.63448190	     -8.94254848	      9.39057218	    -12.47423424	     52.13221122	     22.16673779	     58.49841234	     -7.66500049	     -5.85398147
      1.48275862	     -6.07143495	     -3.37116579	     92.99161992	      0.21084478	      0.80106400	      0.62125290	     -3.00811814	     -6.70791293	    -19.08054172	      7.31446344	      0.12766147	     19.27356108	     17.16443590	      0.00000000	     -0.68077371	      4.38509542	     16.95359242	      4.49784207	      0.07850215	     10.06384127	    -12.42837499	      0.00000000	     -0.38753863	     -0.79127155	     -0.65504678	     -0.71969799	     -1.05239116	     -0.69598721	     -0.63668722	     -1.92389765	     -0.69598721	     -0.44291790	     -1.92389765	     -0.57316593	     -0.35986837	     -1.61356094	     -0.53222551	     -0.22143957	     -1.22567963	     -0.49128509	     -2.76814970	     -8.95102203	     -3.64317369	      0.00000000	      0.00000000	     27.08069749	      6.54417743	      5.98960016	     13.81435110	      0.25231729	    123.44796662	      6.73730199	      1.83137464	     -5.88397851	     -8.67445297	      9.46931387	    -12.39420950	     52.68957200	     22.01600834	     58.08131634	     -7.75895184	     -5.91830637
